<mxfile host="app.diagrams.net" modified="2022-06-08T21:31:15.619Z" agent="5.0 (X11; Linux x86_64) AppleWebKit/537.36 (KHTML, like Gecko) Chrome/102.0.0.0 Safari/537.36" etag="PHy1kOZOeiMydyBdailK" version="18.2.0" type="github">
  <diagram id="QmsDxYqP9oaFZ9uSwPhC" name="Page-1">
    <mxGraphModel dx="868" dy="1561" grid="1" gridSize="10" guides="1" tooltips="1" connect="1" arrows="1" fold="1" page="1" pageScale="1" pageWidth="850" pageHeight="1100" math="0" shadow="0">
      <root>
        <mxCell id="0" />
        <mxCell id="1" parent="0" />
        <mxCell id="T8FbT5gpzr0WDB69Okik-1" value="Key 1024 =&amp;gt; 86 Byte" style="rounded=0;whiteSpace=wrap;html=1;" vertex="1" parent="1">
          <mxGeometry x="660" y="60" width="120" height="60" as="geometry" />
        </mxCell>
        <mxCell id="T8FbT5gpzr0WDB69Okik-2" value="Key 2048 =&amp;gt; 214 Byte" style="rounded=0;whiteSpace=wrap;html=1;" vertex="1" parent="1">
          <mxGeometry x="160" y="60" width="120" height="60" as="geometry" />
        </mxCell>
        <mxCell id="T8FbT5gpzr0WDB69Okik-3" value="Initialization" style="rounded=0;whiteSpace=wrap;html=1;" vertex="1" parent="1">
          <mxGeometry x="410" y="-50" width="120" height="60" as="geometry" />
        </mxCell>
        <mxCell id="T8FbT5gpzr0WDB69Okik-4" value="OBU" style="text;html=1;strokeColor=none;fillColor=none;align=center;verticalAlign=middle;whiteSpace=wrap;rounded=0;" vertex="1" parent="1">
          <mxGeometry x="200" y="20" width="60" height="30" as="geometry" />
        </mxCell>
        <mxCell id="T8FbT5gpzr0WDB69Okik-5" value="System" style="text;html=1;strokeColor=none;fillColor=none;align=center;verticalAlign=middle;whiteSpace=wrap;rounded=0;" vertex="1" parent="1">
          <mxGeometry x="690" y="30" width="60" height="30" as="geometry" />
        </mxCell>
        <mxCell id="T8FbT5gpzr0WDB69Okik-6" value="" style="endArrow=classic;html=1;rounded=0;exitX=1;exitY=0.25;exitDx=0;exitDy=0;entryX=0;entryY=0.25;entryDx=0;entryDy=0;" edge="1" parent="1" source="T8FbT5gpzr0WDB69Okik-2" target="T8FbT5gpzr0WDB69Okik-1">
          <mxGeometry width="50" height="50" relative="1" as="geometry">
            <mxPoint x="480" y="200" as="sourcePoint" />
            <mxPoint x="530" y="150" as="targetPoint" />
          </mxGeometry>
        </mxCell>
        <mxCell id="T8FbT5gpzr0WDB69Okik-7" value="enc(TS, Request)&lt;br&gt;plain:Public Key" style="text;html=1;strokeColor=none;fillColor=none;align=center;verticalAlign=middle;whiteSpace=wrap;rounded=0;" vertex="1" parent="1">
          <mxGeometry x="380" y="40" width="185" height="30" as="geometry" />
        </mxCell>
        <mxCell id="T8FbT5gpzr0WDB69Okik-9" value="" style="endArrow=classic;html=1;rounded=0;exitX=0;exitY=0.75;exitDx=0;exitDy=0;entryX=1;entryY=0.75;entryDx=0;entryDy=0;" edge="1" parent="1" source="T8FbT5gpzr0WDB69Okik-1" target="T8FbT5gpzr0WDB69Okik-2">
          <mxGeometry width="50" height="50" relative="1" as="geometry">
            <mxPoint x="480" y="230" as="sourcePoint" />
            <mxPoint x="530" y="180" as="targetPoint" />
          </mxGeometry>
        </mxCell>
        <mxCell id="T8FbT5gpzr0WDB69Okik-10" value="enc(RID,SIgnature,SK, TS)" style="text;html=1;strokeColor=none;fillColor=none;align=center;verticalAlign=middle;whiteSpace=wrap;rounded=0;" vertex="1" parent="1">
          <mxGeometry x="370" y="110" width="190" height="30" as="geometry" />
        </mxCell>
        <mxCell id="T8FbT5gpzr0WDB69Okik-12" value="Rigestration" style="rounded=0;whiteSpace=wrap;html=1;" vertex="1" parent="1">
          <mxGeometry x="410" y="150" width="120" height="60" as="geometry" />
        </mxCell>
        <mxCell id="T8FbT5gpzr0WDB69Okik-13" value="Key 1024 =&amp;gt; 86 Byte" style="rounded=0;whiteSpace=wrap;html=1;" vertex="1" parent="1">
          <mxGeometry x="160" y="240" width="120" height="60" as="geometry" />
        </mxCell>
        <mxCell id="T8FbT5gpzr0WDB69Okik-14" value="Key 1024 =&amp;gt; 86 Byte" style="rounded=0;whiteSpace=wrap;html=1;" vertex="1" parent="1">
          <mxGeometry x="630" y="240" width="120" height="60" as="geometry" />
        </mxCell>
        <mxCell id="T8FbT5gpzr0WDB69Okik-15" value="" style="endArrow=classic;html=1;rounded=0;exitX=1;exitY=0.25;exitDx=0;exitDy=0;entryX=0;entryY=0.25;entryDx=0;entryDy=0;" edge="1" parent="1" source="T8FbT5gpzr0WDB69Okik-13" target="T8FbT5gpzr0WDB69Okik-14">
          <mxGeometry width="50" height="50" relative="1" as="geometry">
            <mxPoint x="480" y="230" as="sourcePoint" />
            <mxPoint x="530" y="180" as="targetPoint" />
          </mxGeometry>
        </mxCell>
        <mxCell id="T8FbT5gpzr0WDB69Okik-16" value="enc(RID, Signature, Token1,TS)" style="text;html=1;strokeColor=none;fillColor=none;align=center;verticalAlign=middle;whiteSpace=wrap;rounded=0;" vertex="1" parent="1">
          <mxGeometry x="370" y="220" width="190" height="30" as="geometry" />
        </mxCell>
        <mxCell id="T8FbT5gpzr0WDB69Okik-19" value="" style="endArrow=classic;html=1;rounded=0;exitX=0;exitY=0.75;exitDx=0;exitDy=0;entryX=1;entryY=0.75;entryDx=0;entryDy=0;" edge="1" parent="1" source="T8FbT5gpzr0WDB69Okik-14" target="T8FbT5gpzr0WDB69Okik-13">
          <mxGeometry width="50" height="50" relative="1" as="geometry">
            <mxPoint x="480" y="350" as="sourcePoint" />
            <mxPoint x="530" y="300" as="targetPoint" />
          </mxGeometry>
        </mxCell>
        <mxCell id="T8FbT5gpzr0WDB69Okik-20" value="enc(Token2, TS)" style="text;html=1;strokeColor=none;fillColor=none;align=center;verticalAlign=middle;whiteSpace=wrap;rounded=0;" vertex="1" parent="1">
          <mxGeometry x="400" y="280" width="140" height="30" as="geometry" />
        </mxCell>
        <mxCell id="T8FbT5gpzr0WDB69Okik-22" value="Key 256 =&amp;gt; Block cipher" style="rounded=0;whiteSpace=wrap;html=1;" vertex="1" parent="1">
          <mxGeometry x="160" y="370" width="120" height="60" as="geometry" />
        </mxCell>
        <mxCell id="T8FbT5gpzr0WDB69Okik-23" value="Authentication" style="rounded=0;whiteSpace=wrap;html=1;" vertex="1" parent="1">
          <mxGeometry x="405" y="320" width="120" height="60" as="geometry" />
        </mxCell>
        <mxCell id="T8FbT5gpzr0WDB69Okik-24" value="Certification Update" style="rounded=0;whiteSpace=wrap;html=1;" vertex="1" parent="1">
          <mxGeometry x="410" y="470" width="120" height="60" as="geometry" />
        </mxCell>
        <mxCell id="T8FbT5gpzr0WDB69Okik-25" value="Key 256 =&amp;gt; Block cipher" style="rounded=0;whiteSpace=wrap;html=1;" vertex="1" parent="1">
          <mxGeometry x="620" y="370" width="120" height="60" as="geometry" />
        </mxCell>
        <mxCell id="T8FbT5gpzr0WDB69Okik-26" value="Key 256 =&amp;gt; Block cipher" style="rounded=0;whiteSpace=wrap;html=1;" vertex="1" parent="1">
          <mxGeometry x="160" y="540" width="120" height="60" as="geometry" />
        </mxCell>
        <mxCell id="T8FbT5gpzr0WDB69Okik-28" value="Key 256 =&amp;gt; Block cipher" style="rounded=0;whiteSpace=wrap;html=1;" vertex="1" parent="1">
          <mxGeometry x="620" y="540" width="120" height="60" as="geometry" />
        </mxCell>
        <mxCell id="T8FbT5gpzr0WDB69Okik-29" value="work around rsa key moving encrypted:&lt;br&gt;- Initialization phase :&lt;br&gt;create rsa keys with size 2048 for OBU, and with 1024 for the system.&lt;br&gt;-&lt;b&gt;registration&lt;/b&gt;:&lt;br&gt;send the public parameters as a plain text.&lt;br&gt;- FID, new public key.&lt;br&gt;- make hash matching in the response of the system.&lt;br&gt;&lt;br&gt;registration phase, activity diagram, photo, security protocol." style="shape=note;whiteSpace=wrap;html=1;backgroundOutline=1;darkOpacity=0.05;size=22;align=left;" vertex="1" parent="1">
          <mxGeometry x="570" y="-300" width="255" height="270" as="geometry" />
        </mxCell>
      </root>
    </mxGraphModel>
  </diagram>
</mxfile>
